<svg width="15" height="15" viewBox="0 0 15 15" fill="none" xmlns="http://www.w3.org/2000/svg">
<path d="M7.5 0C6.01664 0 4.56659 0.439867 3.33322 1.26398C2.09985 2.08809 1.13856 3.25943 0.570901 4.62987C0.00324392 6.00032 -0.145281 7.50832 0.144108 8.96318C0.433497 10.418 1.1478 11.7544 2.1967 12.8033C3.24559 13.8522 4.58196 14.5665 6.03682 14.8559C7.49168 15.1453 8.99968 14.9968 10.3701 14.4291C11.7406 13.8614 12.9119 12.9001 13.736 11.6668C14.5601 10.4334 15 8.98336 15 7.5C14.9978 5.51154 14.207 3.60513 12.8009 2.19907C11.3949 0.793018 9.48846 0.00215068 7.5 0V0ZM7.5 13.75C6.26386 13.75 5.05549 13.3834 4.02768 12.6967C2.99988 12.0099 2.1988 11.0338 1.72575 9.89177C1.2527 8.74973 1.12893 7.49307 1.37009 6.28069C1.61125 5.06831 2.2065 3.95466 3.08058 3.08058C3.95466 2.2065 5.0683 1.61125 6.28068 1.37009C7.49306 1.12893 8.74973 1.25271 9.89177 1.72575C11.0338 2.1988 12.0099 2.99988 12.6967 4.02769C13.3834 5.05549 13.75 6.26387 13.75 7.5C13.7482 9.15705 13.0891 10.7457 11.9174 11.9174C10.7457 13.0891 9.15704 13.7482 7.5 13.75Z" fill="#478DD5"/>
<path d="M7.94813 3.16437C7.58771 3.0987 7.21726 3.11305 6.863 3.2064C6.50873 3.29975 6.17932 3.46981 5.89806 3.70456C5.6168 3.93931 5.39057 4.23301 5.23538 4.56487C5.08019 4.89673 4.99984 5.25865 5 5.625C5 5.79076 5.06585 5.94973 5.18306 6.06694C5.30027 6.18415 5.45924 6.25 5.625 6.25C5.79076 6.25 5.94973 6.18415 6.06694 6.06694C6.18415 5.94973 6.25 5.79076 6.25 5.625C6.24984 5.44111 6.29026 5.25945 6.36837 5.09297C6.44648 4.9265 6.56036 4.7793 6.70189 4.66189C6.84341 4.54448 7.0091 4.45974 7.18714 4.41371C7.36518 4.36769 7.55118 4.36151 7.73188 4.39562C7.97878 4.44355 8.20578 4.56399 8.38391 4.74155C8.56203 4.91912 8.68318 5.14575 8.73188 5.3925C8.78106 5.6515 8.7471 5.91942 8.63485 6.15796C8.52259 6.3965 8.3378 6.59344 8.10688 6.72062C7.72448 6.94216 7.40849 7.2622 7.19183 7.64737C6.97517 8.03255 6.86576 8.46879 6.875 8.91062V9.375C6.875 9.54076 6.94085 9.69973 7.05806 9.81694C7.17527 9.93415 7.33424 10 7.5 10C7.66576 10 7.82473 9.93415 7.94194 9.81694C8.05915 9.69973 8.125 9.54076 8.125 9.375V8.91062C8.11716 8.69313 8.16675 8.47741 8.26879 8.28518C8.37083 8.09295 8.52172 7.931 8.70625 7.81562C9.15907 7.56692 9.52372 7.18403 9.75005 6.71963C9.97639 6.25522 10.0533 5.7321 9.97017 5.2222C9.88706 4.71231 9.64803 4.24068 9.28594 3.87218C8.92385 3.50368 8.45649 3.25641 7.94813 3.16437Z" fill="#478DD5"/>
<path d="M8.125 11.25C8.125 10.9048 7.84518 10.625 7.5 10.625C7.15482 10.625 6.875 10.9048 6.875 11.25C6.875 11.5952 7.15482 11.875 7.5 11.875C7.84518 11.875 8.125 11.5952 8.125 11.25Z" fill="#478DD5"/>

</svg>
