<svg width="23" height="23" fill="none" xmlns="http://www.w3.org/2000/svg"><path d="m22.158 8.691-7.27-7.27a4.8 4.8 0 0 0-6.777 0L.842 8.691A2.854 2.854 0 0 0 0 10.724v9.408a2.875 2.875 0 0 0 2.875 2.875h17.25A2.875 2.875 0 0 0 23 20.132v-9.408a2.854 2.854 0 0 0-.842-2.033ZM14.375 21.09h-5.75v-3.77a2.875 2.875 0 0 1 5.75 0v3.77Zm6.708-.958a.958.958 0 0 1-.958.958h-3.833v-3.77a4.792 4.792 0 0 0-9.584 0v3.77H2.875a.958.958 0 0 1-.958-.958v-9.408c0-.254.101-.498.28-.678l7.27-7.267a2.883 2.883 0 0 1 4.067 0l7.269 7.27c.178.18.279.422.28.675v9.408Z" fill="#fff"/></svg>