<svg width="17" height="17" viewBox="0 0 17 17" fill="none" xmlns="http://www.w3.org/2000/svg">

<path d="M16.6892 15.1904L13.3989 11.8987C15.8609 8.60861 15.1896 3.94566 11.8995 1.48369C8.60947 -0.978282 3.94651 -0.306983 1.48454 2.98307C-0.977427 6.27311 -0.306129 10.9361 2.98392 13.398C5.62676 15.3757 9.25664 15.3757 11.8995 13.398L15.1912 16.6897C15.6049 17.1034 16.2755 17.1034 16.6892 16.6897C17.1028 16.2761 17.1028 15.6054 16.6892 15.1918L16.6892 15.1904ZM7.46915 12.7627C4.54511 12.7627 2.17474 10.3923 2.17474 7.46829C2.17474 4.54426 4.54511 2.17388 7.46915 2.17388C10.3932 2.17388 12.7636 4.54426 12.7636 7.46829C12.7605 10.391 10.3919 12.7596 7.46915 12.7627Z" fill="white"/>

</svg>
